#!OML:ASF H:\Punching\Project 1\Capture day 1\Session 1\female.ASF
:FULLY-SPECIFIED
:DEGREES
2438
root 0.563675 13.8606 0.999242 15.0338 -18.369 -4.01337
lowerback -6.92222 5.60691 7.04651
upperback -9.05089 7.12947 -3.13955
thorax -4.40805 3.08089 -6.94052
lowerneck -16.2076 0.489979 5.5826
upperneck 27.7432 0.235947 -4.0155
head 11.7701 0.167572 -2.42212
rclavicle -1.09232e-013 -4.77083e-014
rhumerus 0.679569 16.1279 -69.3789
rradius 125.093
rwrist -15.1439
rhand -32.7189 8.91505
rfingers 7.12502
rthumb -5.94282 -20.9816
lclavicle -1.09232e-013 -4.77083e-014
lhumerus -7.26856 -3.62322 40.6545
lradius 136.39
lwrist 2.84853
lhand -24.7394 6.7928
lfingers 7.12502
lthumb 1.76329 36.7653
rfemur 12.9082 2.932 22.4093
rtibia 29.0593
rfoot -26.2177 -37.941
rtoes -12.312
lfemur -62.0018 -0.539464 -14.3949
ltibia 62.2611
lfoot -11.7328 6.53509
ltoes 1.30695
2439
root 0.58034 13.8893 1.16073 14.2327 -17.6442 -3.84693
lowerback -6.73933 5.53494 6.76484
upperback -9.10395 7.05965 -3.04849
thorax -4.6168 3.05271 -6.7164
lowerneck -16.0911 0.197879 5.32269
upperneck 28.2065 -0.199442 -3.67351
head 11.9033 -0.0054371 -2.32197
rclavicle -3.68746e-014 0
rhumerus -0.145395 15.446 -68.4392
rradius 125.187
rwrist -15.3791
rhand -32.6165 8.60548
rfingers 7.12502
rthumb -5.84398 -21.2939
lclavicle -3.68746e-014 0
lhumerus -6.88239 -4.3912 41.1705
lradius 136.097
lwrist 2.36693
lhand -24.6035 6.57418
lfingers 7.12502
lthumb 1.89455 36.5455
rfemur 12.0601 1.99543 21.9675
rtibia 32.5921
rfoot -21.953 -37.1655
rtoes -7.63254
lfemur -60.647 -0.978678 -15.0737
ltibia 62.2277
lfoot -12.3529 6.27971
ltoes 1.54816
2440
root 0.595287 13.924 1.31631 13.3544 -16.9015 -3.65372
lowerback -6.4596 5.39315 6.40595
upperback -9.1331 6.90428 -2.94055
thorax -4.87596 2.98538 -6.44525
lowerneck -15.9381 -0.0451169 5.12033
upperneck 28.6775 -0.587151 -3.3206
head 12.0392 -0.148594 -2.21995
rclavicle 5.76476e-015 3.18055e-015
rhumerus -1.02732 14.8117 -67.54
rradius 125.286
rwrist -15.6865
rhand -32.4809 8.33303
rfingers 7.12502
rthumb -5.71304 -21.57
lclavicle 5.76476e-015 3.18055e-015
lhumerus -6.42777 -5.18494 41.7419
lradius 135.791
lwrist 1.9414
lhand -24.4998 6.33446
lfingers 7.12502
lthumb 1.99467 36.3049
rfemur 10.9693 1.05727 21.513
rtibia 36.452
rfoot -17.1563 -35.8518
rtoes -2.52577
lfemur -59.1049 -1.47547 -15.738
ltibia 62.0089
lfoot -12.9126 6.08402
ltoes 1.84674
2441
root 0.608216 13.9631 1.46475 12.3895 -16.152 -3.36041
lowerback -6.0937 5.18051 5.8973
upperback -9.1306 6.65991 -2.83781
thorax -5.17393 2.88205 -6.10639
lowerneck -15.7575 -0.239475 4.98032
upperneck 29.1434 -0.927554 -2.96397
head 12.1738 -0.262607 -2.1193
rclavicle 9.64106e-015 -1.90833e-014
rhumerus -1.94127 14.2187 -66.6845
rradius 125.406
rwrist -16.049
rhand -32.3361 8.10217
rfingers 7.12502
rthumb -5.57324 -21.8045
lclavicle 9.64106e-015 -1.90833e-014
lhumerus -5.87412 -6.00152 42.3616
lradius 135.457
lwrist 1.58177
lhand -24.4502 6.08606
lfingers 7.12502
lthumb 2.04259 36.056
rfemur 9.66979 0.17048 20.9827
rtibia 40.5848
rfoot -12.7151 -33.9559
rtoes 1.34537
lfemur -57.3971 -2.06303 -16.4553
ltibia 61.6131
lfoot -13.3936 5.96468
ltoes 2.15925
2442
root 0.619211 14.0054 1.60558 11.3485 -15.4005 -2.91077
lowerback -5.66171 4.90257 5.18138
upperback -9.0957 6.32949 -2.75594
thorax -5.4986 2.74851 -5.67913
lowerneck -15.5607 -0.390174 4.90198
upperneck 29.6013 -1.22279 -2.6197
head 12.3071 -0.350628 -2.02625
rclavicle -4.87022e-015 2.8625e-014
rhumerus -2.86105 13.6648 -65.8707
rradius 125.542
rwrist -16.4098
rhand -32.2075 7.8732
rfingers 7.12502
rthumb -5.44903 -22.0367
lclavicle -4.87022e-015 2.8625e-014
lhumerus -5.22697 -6.83195 43.0232
lradius 135.114
lwrist 1.30401
lhand -24.4403 5.86192
lfingers 7.12502
lthumb 2.05217 35.8318
rfemur 8.17939 -0.650592 20.3148
rtibia 44.9243
rfoot -9.25235 -31.6254
rtoes 2.68087
lfemur -55.5602 -2.7644 -17.2856
ltibia 61.0486
lfoot -13.7844 5.93301
ltoes 2.49026
2443
root 0.62866 14.0491 1.73908 10.2677 -14.6399 -2.30913
lowerback -5.20599 4.57027 4.26822
upperback -9.02813 5.92082 -2.69462
thorax -5.81958 2.59016 -5.16092
lowerneck -15.3467 -0.501752 4.87427
upperneck 30.0415 -1.47199 -2.29813
head 12.4341 -0.415015 -1.94248
rclavicle -6.37105e-014 -3.4191e-014
rhumerus -3.76796 13.151 -65.0917
rradius 125.69
rwrist -16.7424
rhand -32.1193 7.63936
rfingers 7.12502
rthumb -5.36393 -22.2728
lclavicle -6.37105e-014 -3.4191e-014
lhumerus -4.49711 -7.67996 43.7333
lradius 134.745
lwrist 1.05282
lhand -24.5151 5.65826
lfingers 7.12502
lthumb 1.97986 35.6288
rfemur 6.50483 -1.38586 19.5145
rtibia 49.3956
rfoot -6.95429 -28.9681
rtoes 1.63417
lfemur -53.6469 -3.58121 -18.2361
ltibia 60.3406
lfoot -14.0763 5.9956
ltoes 2.80868
2444
root 0.637028 14.0932 1.86607 9.1966 -13.8585 -1.60282
lowerback -4.76494 4.19865 3.20931
upperback -8.93248 5.44935 -2.6449
thorax -6.10986 2.41315 -4.56466
lowerneck -15.1281 -0.582816 4.89032
upperneck 30.4659 -1.68182 -2.01056
head 12.5571 -0.461024 -1.87235
rclavicle -1.64991e-014 -7.15625e-015
rhumerus -4.65835 12.6665 -64.3397
rradius 125.856
rwrist -17.0305
rhand -32.0763 7.37617
rfingers 7.12502
rthumb -5.32243 -22.537
lclavicle -1.64991e-014 -7.15625e-015
lhumerus -3.72684 -8.52722 44.4759
lradius 134.39
lwrist 0.833044
lhand -24.6495 5.48935
lfingers 7.12502
lthumb 1.85004 35.4611
rfemur 4.62924 -2.04362 18.6231
rtibia 53.9281
rfoot -5.66376 -26.0174
rtoes -0.869647
lfemur -51.7141 -4.50266 -19.2686
ltibia 59.5222
lfoot -14.2841 6.1499
ltoes 3.15271
2445
root 0.644757 14.1371 1.98738 8.18205 -13.053 -0.882749
lowerback -4.37248 3.80211 2.10265
upperback -8.81 4.93375 -2.5837
thorax -6.33917 2.22206 -3.91632
lowerneck -14.9106 -0.638544 4.93637
upperneck 30.8741 -1.85366 -1.76161
head 12.6764 -0.491532 -1.81566
rclavicle -2.90226e-014 9.54166e-015
rhumerus -5.52111 12.2078 -63.6075
rradius 126.038
rwrist -17.286
rhand -32.0725 7.0611
rfingers 7.12502
rthumb -5.31869 -22.8522
lclavicle -2.90226e-014 9.54166e-015
lhumerus -2.93174 -9.38587 45.2763
lradius 134.027
lwrist 0.576252
lhand -24.8539 5.34552
lfingers 7.12502
lthumb 1.65271 35.3189
rfemur 2.5324 -2.64231 17.7265
rtibia 58.4607
rfoot -5.16219 -23.2223
rtoes -4.45701
lfemur -49.8132 -5.49846 -20.2981
ltibia 58.6381
lfoot -14.4256 6.3805
ltoes 3.49452
2446
root 0.652052 14.1805 2.10354 7.2521 -12.2342 -0.224349
lowerback -4.0373 3.39283 1.02723
upperback -8.66877 4.39349 -2.49215
thorax -6.50188 2.02127 -3.24028
lowerneck -14.6919 -0.674462 5.00498
upperneck 31.2712 -1.99186 -1.55345
head 12.7929 -0.509612 -1.77281
rclavicle 4.75095e-014 2.38542e-014
rhumerus -6.35759 11.7782 -62.9032
rradius 126.207
rwrist -17.4799
rhand -32.1127 6.78261
rfingers 7.12502
rthumb -5.35751 -23.1297
lclavicle 4.75095e-014 2.38542e-014
lhumerus -2.14015 -10.262 46.1345
lradius 133.659
lwrist 0.265695
lhand -25.1254 5.21919
lfingers 7.12502
lthumb 1.39045 35.1944
rfemur 0.194978 -3.19349 16.9001
rtibia 62.947
rfoot -4.94255 -19.8113
rtoes -6.47637
lfemur -47.9777 -6.53145 -21.2522
ltibia 57.7289
lfoot -14.4977 6.66823
ltoes 3.71941
2447
root 0.658988 14.224 2.21454 6.41869 -11.4286 0.301102
lowerback -3.75301 2.98065 0.0564033
upperback -8.51066 3.84626 -2.35126
thorax -6.59713 1.81437 -2.55963
lowerneck -14.4889 -0.690512 5.0956
upperneck 31.6666 -2.09613 -1.38808
head 12.9139 -0.515289 -1.74502
rclavicle -2.01766e-014 -1.51076e-014
rhumerus -7.155 11.3667 -62.2257
rradius 126.388
rwrist -17.686
rhand -32.1511 6.49969
rfingers 7.12502
rthumb -5.39466 -23.4116
lclavicle -2.01766e-014 -1.51076e-014
lhumerus -1.36373 -11.1333 47.0404
lradius 133.287
lwrist -0.0865921
lhand -25.4125 5.10937
lfingers 7.12502
lthumb 1.11314 35.0862
rfemur -2.39016 -3.69627 16.2216
rtibia 67.3514
rfoot -5.04879 -16.7728
rtoes -8.17725
lfemur -46.2258 -7.55478 -22.0596
ltibia 56.8313
lfoot -14.5158 6.99281
ltoes 3.79557
